# Blender 3.3.1
# www.blender.org
mtllib Vent_Thing.mtl
o Cube
v -0.141895 -1.000000 1.000000
v -0.141895 1.000000 1.000000
v -0.141895 -1.000000 -1.000000
v -0.141895 1.000000 -1.000000
v 0.141895 -1.000000 1.000000
v 0.141895 1.000000 1.000000
v 0.141895 -1.000000 -1.000000
v 0.141895 1.000000 -1.000000
v -0.141895 -0.714286 1.000000
v -0.141895 -0.428571 1.000000
v -0.141895 -0.142857 1.000000
v -0.141895 0.142857 1.000000
v -0.141895 0.428571 1.000000
v -0.141895 0.714286 1.000000
v -0.141895 0.714286 -1.000000
v -0.141895 0.428571 -1.000000
v -0.141895 0.142857 -1.000000
v -0.141895 -0.142857 -1.000000
v -0.141895 -0.428571 -1.000000
v -0.141895 -0.714286 -1.000000
v 0.141895 0.680462 -0.731607
v 0.141895 0.462395 -0.731607
v 0.141895 0.109033 -0.731607
v 0.141895 -0.109033 -0.731607
v 0.141895 -0.462395 -0.731607
v 0.141895 -0.680462 -0.731607
v 0.141895 0.680462 0.731607
v 0.141895 0.462395 0.731607
v 0.141895 0.109033 0.731607
v 0.141895 -0.109033 0.731607
v 0.141895 -0.462395 0.731607
v 0.141895 -0.680462 0.731607
v 0.141895 0.714286 -1.000000
v 0.141895 0.428571 -1.000000
v 0.141895 0.142857 -1.000000
v 0.141895 -0.142857 -1.000000
v 0.141895 -0.428571 -1.000000
v 0.141895 -0.714286 -1.000000
v 0.141895 0.714286 1.000000
v 0.141895 0.428571 1.000000
v 0.141895 0.142857 1.000000
v 0.141895 -0.142857 1.000000
v 0.141895 -0.428571 1.000000
v 0.141895 -0.714286 1.000000
v -0.011642 0.680462 -0.966176
v -0.011642 0.462395 -0.966176
v -0.011642 0.109033 -0.966176
v -0.011642 -0.109033 -0.966176
v -0.011642 -0.462395 -0.966176
v -0.011642 -0.680462 -0.966176
v -0.011642 0.680462 0.966176
v -0.011642 0.462395 0.966176
v -0.011642 0.109033 0.966176
v -0.011642 -0.109033 0.966176
v -0.011642 -0.462395 0.966176
v -0.011642 -0.680462 0.966176
vn -0.0000 -0.0000 -1.0000
vn 1.0000 -0.0000 -0.0000
vn -0.0000 -0.0000 1.0000
vn -0.0000 -1.0000 -0.0000
vn -0.0000 1.0000 -0.0000
vn -0.8367 -0.0000 0.5477
vn -0.8367 -0.0000 -0.5477
vt 0.257417 0.594306
vt 0.328910 0.665799
vt 0.400404 0.665799
vt 0.471897 0.594306
vt 0.257417 0.522812
vt 0.328910 0.451319
vt 0.400404 0.451319
vt 0.471897 0.522812
vt 0.328910 0.594306
vt 0.400404 0.594306
vt 0.328910 0.522812
vt 0.400404 0.522812
vt 0.339124 0.665799
vt 0.349337 0.665799
vt 0.359550 0.665799
vt 0.369764 0.665799
vt 0.379977 0.665799
vt 0.390190 0.665799
vt 0.390190 0.451319
vt 0.379977 0.451319
vt 0.369764 0.451319
vt 0.359550 0.451319
vt 0.349337 0.451319
vt 0.339124 0.451319
vt 0.388981 0.524021
vt 0.381186 0.524021
vt 0.368555 0.524021
vt 0.360759 0.524021
vt 0.348128 0.524021
vt 0.340333 0.524021
vt 0.388981 0.593096
vt 0.381186 0.593096
vt 0.368555 0.593096
vt 0.360759 0.593096
vt 0.348128 0.593096
vt 0.340333 0.593096
vt 0.390190 0.522812
vt 0.379977 0.522812
vt 0.369764 0.522812
vt 0.359550 0.522812
vt 0.349337 0.522812
vt 0.339124 0.522812
vt 0.390190 0.594306
vt 0.379977 0.594306
vt 0.369764 0.594306
vt 0.359550 0.594306
vt 0.349337 0.594306
vt 0.339124 0.594306
vt 0.388981 0.524021
vt 0.381186 0.524021
vt 0.368555 0.524021
vt 0.360759 0.524021
vt 0.348128 0.524021
vt 0.340333 0.524021
vt 0.388981 0.593096
vt 0.381186 0.593096
vt 0.368555 0.593096
vt 0.360759 0.593096
vt 0.348128 0.593096
vt 0.340333 0.593096
s 0
usemtl Material
f 15/19/1 4/7/1 8/12/1 33/37/1
f 33/37/2 8/12/2 6/10/2 39/43/2
f 39/43/3 6/10/3 2/3/3 14/18/3
f 3/5/4 7/11/4 5/9/4 1/1/4
f 8/12/5 4/8/5 2/4/5 6/10/5
f 5/9/3 44/48/3 9/13/3 1/2/3
f 44/48/3 43/47/3 10/14/3 9/13/3
f 43/47/3 42/46/3 11/15/3 10/14/3
f 42/46/3 41/45/3 12/16/3 11/15/3
f 41/45/3 40/44/3 13/17/3 12/16/3
f 40/44/3 39/43/3 14/18/3 13/17/3
f 7/11/2 38/42/2 44/48/2 5/9/2
f 30/34/5 24/28/5 48/52/5 54/58/5
f 37/41/2 36/40/2 42/46/2 43/47/2
f 24/28/6 23/27/6 47/51/6 48/52/6
f 35/39/2 34/38/2 40/44/2 41/45/2
f 21/25/4 27/31/4 51/55/4 45/49/4
f 3/6/1 20/24/1 38/42/1 7/11/1
f 20/24/1 19/23/1 37/41/1 38/42/1
f 19/23/1 18/22/1 36/40/1 37/41/1
f 18/22/1 17/21/1 35/39/1 36/40/1
f 17/21/1 16/20/1 34/38/1 35/39/1
f 16/20/1 15/19/1 33/37/1 34/38/1
f 21/25/2 22/26/2 34/38/2 33/37/2
f 23/27/2 24/28/2 36/40/2 35/39/2
f 25/29/2 26/30/2 38/42/2 37/41/2
f 28/32/2 27/31/2 39/43/2 40/44/2
f 30/34/2 29/33/2 41/45/2 42/46/2
f 32/36/2 31/35/2 43/47/2 44/48/2
f 26/30/2 32/36/2 44/48/2 38/42/2
f 31/35/2 25/29/2 37/41/2 43/47/2
f 24/28/2 30/34/2 42/46/2 36/40/2
f 29/33/2 23/27/2 35/39/2 41/45/2
f 22/26/2 28/32/2 40/44/2 34/38/2
f 27/31/2 21/25/2 33/37/2 39/43/2
f 31/35/7 32/36/7 56/60/7 55/59/7
f 26/30/6 25/29/6 49/53/6 50/54/6
f 23/27/4 29/33/4 53/57/4 47/51/4
f 32/36/5 26/30/5 50/54/5 56/60/5
f 27/31/7 28/32/7 52/56/7 51/55/7
f 28/32/5 22/26/5 46/50/5 52/56/5
f 22/26/6 21/25/6 45/49/6 46/50/6
f 25/29/4 31/35/4 55/59/4 49/53/4
f 29/33/7 30/34/7 54/58/7 53/57/7
